<mxfile host="app.diagrams.net" modified="2023-10-14T13:05:34.922Z" agent="Mozilla/5.0 (Macintosh; Intel Mac OS X 10_15_7) AppleWebKit/537.36 (KHTML, like Gecko) Chrome/118.0.0.0 Safari/537.36" etag="8CwTCOd-weBsRlJ2qOxs" version="22.0.4" type="device">
  <diagram name="Page-1" id="N5Q_urzB3sijw5tgfWox">
    <mxGraphModel dx="1026" dy="655" grid="1" gridSize="10" guides="1" tooltips="1" connect="1" arrows="1" fold="1" page="1" pageScale="1" pageWidth="827" pageHeight="1169" math="0" shadow="0">
      <root>
        <mxCell id="0" />
        <mxCell id="1" parent="0" />
        <mxCell id="jXOrpQiIvjn3FiTN3Y6k-3" value="" style="whiteSpace=wrap;html=1;aspect=fixed;" vertex="1" parent="1">
          <mxGeometry x="50" y="60" width="340" height="340" as="geometry" />
        </mxCell>
        <mxCell id="jXOrpQiIvjn3FiTN3Y6k-4" value="gRPC Client" style="text;html=1;strokeColor=none;fillColor=none;align=center;verticalAlign=middle;whiteSpace=wrap;rounded=0;strokeWidth=4;" vertex="1" parent="1">
          <mxGeometry x="70" y="80" width="100" height="30" as="geometry" />
        </mxCell>
        <mxCell id="jXOrpQiIvjn3FiTN3Y6k-5" value="" style="sketch=0;html=1;dashed=0;whitespace=wrap;fillColor=#2875E2;strokeColor=#ffffff;points=[[0.005,0.63,0],[0.1,0.2,0],[0.9,0.2,0],[0.5,0,0],[0.995,0.63,0],[0.72,0.99,0],[0.5,1,0],[0.28,0.99,0]];verticalLabelPosition=bottom;align=center;verticalAlign=top;shape=mxgraph.kubernetes.icon;prIcon=pod" vertex="1" parent="1">
          <mxGeometry x="75" y="150" width="90" height="90" as="geometry" />
        </mxCell>
        <mxCell id="jXOrpQiIvjn3FiTN3Y6k-6" value="Structured Protobuf Request" style="rounded=0;whiteSpace=wrap;html=1;" vertex="1" parent="1">
          <mxGeometry x="240" y="100" width="120" height="60" as="geometry" />
        </mxCell>
        <mxCell id="jXOrpQiIvjn3FiTN3Y6k-15" value="" style="edgeStyle=orthogonalEdgeStyle;rounded=0;orthogonalLoop=1;jettySize=auto;html=1;" edge="1" parent="1" source="jXOrpQiIvjn3FiTN3Y6k-7" target="jXOrpQiIvjn3FiTN3Y6k-8">
          <mxGeometry relative="1" as="geometry" />
        </mxCell>
        <mxCell id="jXOrpQiIvjn3FiTN3Y6k-7" value="Serialized Protobuf Request" style="rounded=0;whiteSpace=wrap;html=1;" vertex="1" parent="1">
          <mxGeometry x="240" y="200" width="120" height="60" as="geometry" />
        </mxCell>
        <mxCell id="jXOrpQiIvjn3FiTN3Y6k-8" value="" style="sketch=0;outlineConnect=0;fontColor=#232F3E;gradientColor=none;fillColor=#7AA116;strokeColor=none;dashed=0;verticalLabelPosition=bottom;verticalAlign=top;align=center;html=1;fontSize=12;fontStyle=0;aspect=fixed;pointerEvents=1;shape=mxgraph.aws4.http2_protocol;" vertex="1" parent="1">
          <mxGeometry x="261" y="300" width="78" height="78" as="geometry" />
        </mxCell>
        <mxCell id="jXOrpQiIvjn3FiTN3Y6k-9" value="&lt;p style=&quot;-webkit-tap-highlight-color: transparent; box-sizing: border-box; margin: 0px; padding: 0px; font-family: &amp;quot;Helvetica Neue&amp;quot;, Helvetica, &amp;quot;PingFang SC&amp;quot;, &amp;quot;Hiragino Sans GB&amp;quot;, &amp;quot;Microsoft YaHei&amp;quot;, &amp;quot;\5 FAE8F6F96C59ED1&amp;quot;, Arial, sans-serif; background-color: rgb(255, 255, 255); line-height: 1.2; font-size: 10pt;&quot;&gt;HTTP/2.0 Client Stub&lt;/p&gt;" style="rounded=0;whiteSpace=wrap;html=1;" vertex="1" parent="1">
          <mxGeometry x="130" y="340" width="120" height="60" as="geometry" />
        </mxCell>
        <mxCell id="jXOrpQiIvjn3FiTN3Y6k-14" value="" style="endArrow=classic;html=1;rounded=0;exitX=0.5;exitY=1;exitDx=0;exitDy=0;" edge="1" parent="1" source="jXOrpQiIvjn3FiTN3Y6k-6" target="jXOrpQiIvjn3FiTN3Y6k-7">
          <mxGeometry width="50" height="50" relative="1" as="geometry">
            <mxPoint x="440" y="300" as="sourcePoint" />
            <mxPoint x="490" y="250" as="targetPoint" />
          </mxGeometry>
        </mxCell>
        <mxCell id="jXOrpQiIvjn3FiTN3Y6k-16" value="grpc-client-pod" style="text;html=1;strokeColor=none;fillColor=none;align=center;verticalAlign=middle;whiteSpace=wrap;rounded=0;strokeWidth=4;" vertex="1" parent="1">
          <mxGeometry x="70" y="240" width="100" height="30" as="geometry" />
        </mxCell>
        <mxCell id="jXOrpQiIvjn3FiTN3Y6k-17" value="" style="verticalLabelPosition=bottom;html=1;verticalAlign=top;strokeWidth=1;align=center;outlineConnect=0;dashed=0;outlineConnect=0;shape=mxgraph.aws3d.dashedEdge2;strokeColor=#2D6195;aspect=fixed;" vertex="1" parent="1">
          <mxGeometry x="158.29" y="113.46" width="81.71" height="46.54" as="geometry" />
        </mxCell>
        <mxCell id="jXOrpQiIvjn3FiTN3Y6k-18" value="" style="whiteSpace=wrap;html=1;aspect=fixed;" vertex="1" parent="1">
          <mxGeometry x="670" y="50" width="410" height="410" as="geometry" />
        </mxCell>
        <mxCell id="jXOrpQiIvjn3FiTN3Y6k-19" value="" style="verticalLabelPosition=bottom;html=1;verticalAlign=top;strokeWidth=2;shape=mxgraph.lean_mapping.push_arrow;" vertex="1" parent="1">
          <mxGeometry x="480" y="215" width="100" height="30" as="geometry" />
        </mxCell>
        <mxCell id="jXOrpQiIvjn3FiTN3Y6k-21" value="" style="verticalLabelPosition=bottom;html=1;verticalAlign=top;strokeWidth=2;shape=mxgraph.lean_mapping.push_arrow;rotation=-180;" vertex="1" parent="1">
          <mxGeometry x="470" y="270" width="100" height="30" as="geometry" />
        </mxCell>
        <mxCell id="jXOrpQiIvjn3FiTN3Y6k-22" value="" style="sketch=0;html=1;dashed=0;whitespace=wrap;fillColor=#2875E2;strokeColor=#ffffff;points=[[0.005,0.63,0],[0.1,0.2,0],[0.9,0.2,0],[0.5,0,0],[0.995,0.63,0],[0.72,0.99,0],[0.5,1,0],[0.28,0.99,0]];verticalLabelPosition=bottom;align=center;verticalAlign=top;shape=mxgraph.kubernetes.icon;prIcon=pod" vertex="1" parent="1">
          <mxGeometry x="920" y="90" width="80" height="80" as="geometry" />
        </mxCell>
        <mxCell id="jXOrpQiIvjn3FiTN3Y6k-24" value="" style="sketch=0;html=1;dashed=0;whitespace=wrap;fillColor=#2875E2;strokeColor=#ffffff;points=[[0.005,0.63,0],[0.1,0.2,0],[0.9,0.2,0],[0.5,0,0],[0.995,0.63,0],[0.72,0.99,0],[0.5,1,0],[0.28,0.99,0]];verticalLabelPosition=bottom;align=center;verticalAlign=top;shape=mxgraph.kubernetes.icon;prIcon=pod" vertex="1" parent="1">
          <mxGeometry x="920" y="200" width="80" height="80" as="geometry" />
        </mxCell>
        <mxCell id="jXOrpQiIvjn3FiTN3Y6k-25" value="" style="verticalLabelPosition=bottom;sketch=0;aspect=fixed;html=1;verticalAlign=top;strokeColor=none;align=center;outlineConnect=0;shape=mxgraph.citrix.proxy_server;" vertex="1" parent="1">
          <mxGeometry x="1000" y="96" width="57.8" height="68" as="geometry" />
        </mxCell>
        <mxCell id="jXOrpQiIvjn3FiTN3Y6k-26" value="" style="verticalLabelPosition=bottom;sketch=0;aspect=fixed;html=1;verticalAlign=top;strokeColor=none;align=center;outlineConnect=0;shape=mxgraph.citrix.proxy_server;" vertex="1" parent="1">
          <mxGeometry x="1000" y="206" width="57.8" height="68" as="geometry" />
        </mxCell>
        <mxCell id="jXOrpQiIvjn3FiTN3Y6k-27" value="envoy-pod" style="text;html=1;strokeColor=none;fillColor=none;align=center;verticalAlign=middle;whiteSpace=wrap;rounded=0;strokeWidth=4;" vertex="1" parent="1">
          <mxGeometry x="900" y="170" width="100" height="30" as="geometry" />
        </mxCell>
        <mxCell id="jXOrpQiIvjn3FiTN3Y6k-28" value="linkerd2-proxy" style="text;html=1;strokeColor=none;fillColor=none;align=center;verticalAlign=middle;whiteSpace=wrap;rounded=0;strokeWidth=4;" vertex="1" parent="1">
          <mxGeometry x="990" y="170" width="100" height="30" as="geometry" />
        </mxCell>
        <mxCell id="jXOrpQiIvjn3FiTN3Y6k-29" value="&lt;p style=&quot;-webkit-tap-highlight-color: transparent; box-sizing: border-box; margin: 0px; padding: 0px; font-family: &amp;quot;Helvetica Neue&amp;quot;, Helvetica, &amp;quot;PingFang SC&amp;quot;, &amp;quot;Hiragino Sans GB&amp;quot;, &amp;quot;Microsoft YaHei&amp;quot;, &amp;quot;\5 FAE8F6F96C59ED1&amp;quot;, Arial, sans-serif; background-color: rgb(255, 255, 255); line-height: 1.2; font-size: 10pt;&quot;&gt;Envoy with Linkerd Proxy as a sidecar&lt;/p&gt;&lt;div&gt;&lt;span style=&quot;-webkit-tap-highlight-color: transparent; box-sizing: border-box; font-family: Arial; font-size: 10pt;&quot;&gt;&lt;br&gt;&lt;/span&gt;&lt;/div&gt;" style="text;html=1;strokeColor=none;fillColor=none;align=center;verticalAlign=middle;whiteSpace=wrap;rounded=0;strokeWidth=4;" vertex="1" parent="1">
          <mxGeometry x="680" y="60" width="250" height="30" as="geometry" />
        </mxCell>
        <mxCell id="jXOrpQiIvjn3FiTN3Y6k-30" value="" style="sketch=0;html=1;dashed=0;whitespace=wrap;fillColor=#2875E2;strokeColor=#ffffff;points=[[0.005,0.63,0],[0.1,0.2,0],[0.9,0.2,0],[0.5,0,0],[0.995,0.63,0],[0.72,0.99,0],[0.5,1,0],[0.28,0.99,0]];verticalLabelPosition=bottom;align=center;verticalAlign=top;shape=mxgraph.kubernetes.icon;prIcon=svc" vertex="1" parent="1">
          <mxGeometry x="710" y="182" width="100" height="88" as="geometry" />
        </mxCell>
        <mxCell id="jXOrpQiIvjn3FiTN3Y6k-31" value="&lt;p style=&quot;-webkit-tap-highlight-color: transparent; box-sizing: border-box; margin: 0px; padding: 0px; font-family: &amp;quot;Helvetica Neue&amp;quot;, Helvetica, &amp;quot;PingFang SC&amp;quot;, &amp;quot;Hiragino Sans GB&amp;quot;, &amp;quot;Microsoft YaHei&amp;quot;, &amp;quot;\5 FAE8F6F96C59ED1&amp;quot;, Arial, sans-serif; background-color: rgb(255, 255, 255); line-height: 1.2; font-size: 10pt;&quot;&gt;envoy.envoy.svc.cluster.local:8443&lt;br&gt;&lt;/p&gt;" style="text;html=1;strokeColor=none;fillColor=none;align=center;verticalAlign=middle;whiteSpace=wrap;rounded=0;strokeWidth=4;" vertex="1" parent="1">
          <mxGeometry x="660" y="270" width="250" height="30" as="geometry" />
        </mxCell>
        <mxCell id="jXOrpQiIvjn3FiTN3Y6k-32" value="" style="sketch=0;html=1;dashed=0;whitespace=wrap;fillColor=#2875E2;strokeColor=#ffffff;points=[[0.005,0.63,0],[0.1,0.2,0],[0.9,0.2,0],[0.5,0,0],[0.995,0.63,0],[0.72,0.99,0],[0.5,1,0],[0.28,0.99,0]];verticalLabelPosition=bottom;align=center;verticalAlign=top;shape=mxgraph.kubernetes.icon;prIcon=hpa" vertex="1" parent="1">
          <mxGeometry x="730" y="330" width="130" height="80" as="geometry" />
        </mxCell>
        <mxCell id="jXOrpQiIvjn3FiTN3Y6k-33" value="&lt;p style=&quot;-webkit-tap-highlight-color: transparent; box-sizing: border-box; margin: 0px; padding: 0px; font-family: &amp;quot;Helvetica Neue&amp;quot;, Helvetica, &amp;quot;PingFang SC&amp;quot;, &amp;quot;Hiragino Sans GB&amp;quot;, &amp;quot;Microsoft YaHei&amp;quot;, &amp;quot;\5 FAE8F6F96C59ED1&amp;quot;, Arial, sans-serif; background-color: rgb(255, 255, 255); line-height: 1.2; font-size: 10pt;&quot;&gt;HPA&lt;br&gt;&lt;/p&gt;" style="text;html=1;strokeColor=none;fillColor=none;align=center;verticalAlign=middle;whiteSpace=wrap;rounded=0;strokeWidth=4;" vertex="1" parent="1">
          <mxGeometry x="670" y="410" width="250" height="30" as="geometry" />
        </mxCell>
        <mxCell id="jXOrpQiIvjn3FiTN3Y6k-34" value="" style="endArrow=classic;html=1;rounded=0;entryX=0.005;entryY=0.63;entryDx=0;entryDy=0;entryPerimeter=0;exitX=0.9;exitY=0.2;exitDx=0;exitDy=0;exitPerimeter=0;" edge="1" parent="1" source="jXOrpQiIvjn3FiTN3Y6k-30" target="jXOrpQiIvjn3FiTN3Y6k-22">
          <mxGeometry width="50" height="50" relative="1" as="geometry">
            <mxPoint x="820" y="190" as="sourcePoint" />
            <mxPoint x="870" y="140" as="targetPoint" />
          </mxGeometry>
        </mxCell>
        <mxCell id="jXOrpQiIvjn3FiTN3Y6k-35" value="" style="endArrow=classic;html=1;rounded=0;entryX=0.005;entryY=0.63;entryDx=0;entryDy=0;entryPerimeter=0;exitX=0.92;exitY=0.568;exitDx=0;exitDy=0;exitPerimeter=0;" edge="1" parent="1" source="jXOrpQiIvjn3FiTN3Y6k-30" target="jXOrpQiIvjn3FiTN3Y6k-24">
          <mxGeometry width="50" height="50" relative="1" as="geometry">
            <mxPoint x="820" y="209" as="sourcePoint" />
            <mxPoint x="930" y="150" as="targetPoint" />
          </mxGeometry>
        </mxCell>
        <mxCell id="jXOrpQiIvjn3FiTN3Y6k-36" value="" style="image;aspect=fixed;html=1;points=[];align=center;fontSize=12;image=img/lib/azure2/general/Scale.svg;" vertex="1" parent="1">
          <mxGeometry x="900" y="330" width="60" height="60" as="geometry" />
        </mxCell>
        <mxCell id="jXOrpQiIvjn3FiTN3Y6k-37" value="" style="endArrow=classic;html=1;rounded=0;exitX=0.769;exitY=0.4;exitDx=0;exitDy=0;exitPerimeter=0;" edge="1" parent="1" source="jXOrpQiIvjn3FiTN3Y6k-32" target="jXOrpQiIvjn3FiTN3Y6k-36">
          <mxGeometry width="50" height="50" relative="1" as="geometry">
            <mxPoint x="840" y="400" as="sourcePoint" />
            <mxPoint x="890" y="350" as="targetPoint" />
          </mxGeometry>
        </mxCell>
        <mxCell id="jXOrpQiIvjn3FiTN3Y6k-38" value="" style="endArrow=classic;html=1;rounded=0;entryX=0.829;entryY=0.561;entryDx=0;entryDy=0;entryPerimeter=0;" edge="1" parent="1" source="jXOrpQiIvjn3FiTN3Y6k-36" target="jXOrpQiIvjn3FiTN3Y6k-18">
          <mxGeometry width="50" height="50" relative="1" as="geometry">
            <mxPoint x="950" y="311" as="sourcePoint" />
            <mxPoint x="1020" y="310" as="targetPoint" />
          </mxGeometry>
        </mxCell>
        <mxCell id="jXOrpQiIvjn3FiTN3Y6k-39" value="&lt;p style=&quot;-webkit-tap-highlight-color: transparent; box-sizing: border-box; margin: 0px; padding: 0px; font-family: &amp;quot;Helvetica Neue&amp;quot;, Helvetica, &amp;quot;PingFang SC&amp;quot;, &amp;quot;Hiragino Sans GB&amp;quot;, &amp;quot;Microsoft YaHei&amp;quot;, &amp;quot;\5 FAE8F6F96C59ED1&amp;quot;, Arial, sans-serif; background-color: rgb(255, 255, 255); line-height: 1.2; font-size: 10pt;&quot;&gt;Scale Up or Down&lt;br&gt;&lt;/p&gt;" style="text;html=1;strokeColor=none;fillColor=none;align=center;verticalAlign=middle;whiteSpace=wrap;rounded=0;strokeWidth=4;" vertex="1" parent="1">
          <mxGeometry x="890" y="310" width="250" height="30" as="geometry" />
        </mxCell>
        <mxCell id="jXOrpQiIvjn3FiTN3Y6k-40" value="RPC Call" style="fillColor=none;strokeColor=none;html=1;fontSize=11;fontStyle=0;align=left;fontColor=#596780;fontStyle=1;fontSize=11" vertex="1" parent="1">
          <mxGeometry x="414" y="150" width="240" height="20" as="geometry" />
        </mxCell>
        <mxCell id="jXOrpQiIvjn3FiTN3Y6k-41" value="HTTP/2.0 Request" style="rounded=1;arcSize=9;fillColor=#F7F8F9;align=left;spacingLeft=5;strokeColor=#DEE1E6;html=1;strokeWidth=2;fontColor=#596780;fontSize=12" vertex="1" parent="1">
          <mxGeometry x="414" y="170" width="240" height="33" as="geometry" />
        </mxCell>
        <mxCell id="jXOrpQiIvjn3FiTN3Y6k-43" value="RPC Call" style="fillColor=none;strokeColor=none;html=1;fontSize=11;fontStyle=0;align=left;fontColor=#596780;fontStyle=1;fontSize=11" vertex="1" parent="1">
          <mxGeometry x="414" y="312.5" width="240" height="20" as="geometry" />
        </mxCell>
        <mxCell id="jXOrpQiIvjn3FiTN3Y6k-44" value="HTTP/2.0 Response" style="rounded=1;arcSize=9;fillColor=#F7F8F9;align=left;spacingLeft=5;strokeColor=#DEE1E6;html=1;strokeWidth=2;fontColor=#596780;fontSize=12" vertex="1" parent="1">
          <mxGeometry x="414" y="332.5" width="240" height="33" as="geometry" />
        </mxCell>
        <mxCell id="jXOrpQiIvjn3FiTN3Y6k-45" value="" style="whiteSpace=wrap;html=1;aspect=fixed;" vertex="1" parent="1">
          <mxGeometry x="50" y="540" width="470" height="470" as="geometry" />
        </mxCell>
        <mxCell id="jXOrpQiIvjn3FiTN3Y6k-46" value="" style="verticalLabelPosition=bottom;html=1;verticalAlign=top;strokeWidth=2;shape=mxgraph.lean_mapping.push_arrow;rotation=-214;" vertex="1" parent="1">
          <mxGeometry x="530" y="470" width="100" height="30" as="geometry" />
        </mxCell>
        <mxCell id="jXOrpQiIvjn3FiTN3Y6k-47" value="" style="verticalLabelPosition=bottom;html=1;verticalAlign=top;strokeWidth=2;shape=mxgraph.lean_mapping.push_arrow;rotation=-30;" vertex="1" parent="1">
          <mxGeometry x="554" y="510" width="100" height="30" as="geometry" />
        </mxCell>
        <mxCell id="jXOrpQiIvjn3FiTN3Y6k-48" value="&lt;p style=&quot;-webkit-tap-highlight-color: transparent; box-sizing: border-box; margin: 0px 4px; padding: 0px; color: rgb(0, 0, 0); font-family: &amp;quot;Helvetica Neue&amp;quot;, Helvetica, &amp;quot;PingFang SC&amp;quot;, &amp;quot;Hiragino Sans GB&amp;quot;, &amp;quot;Microsoft YaHei&amp;quot;, &amp;quot;\5 FAE8F6F96C59ED1&amp;quot;, Arial, sans-serif; font-weight: 400; background-color: rgb(255, 255, 255); text-align: center; line-height: 1.2; font-size: 9pt;&quot;&gt;RPC Call, HTTP/2.0 Request&lt;/p&gt;&lt;div&gt;&lt;span style=&quot;-webkit-tap-highlight-color: transparent; box-sizing: border-box; font-family: Arial; font-size: 9pt;&quot;&gt;&lt;br&gt;&lt;/span&gt;&lt;/div&gt;" style="fillColor=none;strokeColor=none;html=1;fontSize=11;fontStyle=0;align=left;fontColor=#596780;fontStyle=1;fontSize=11" vertex="1" parent="1">
          <mxGeometry x="294" y="430" width="240" height="20" as="geometry" />
        </mxCell>
        <mxCell id="jXOrpQiIvjn3FiTN3Y6k-49" value="POST /example.YourService/SayHello" style="rounded=1;arcSize=9;fillColor=#F7F8F9;align=left;spacingLeft=5;strokeColor=#DEE1E6;html=1;strokeWidth=2;fontColor=#596780;fontSize=12" vertex="1" parent="1">
          <mxGeometry x="294" y="450" width="240" height="33" as="geometry" />
        </mxCell>
        <mxCell id="jXOrpQiIvjn3FiTN3Y6k-50" value="&lt;p style=&quot;border-color: var(--border-color); -webkit-tap-highlight-color: transparent; box-sizing: border-box; margin: 0px 4px; padding: 0px; color: rgb(0, 0, 0); font-family: &amp;quot;Helvetica Neue&amp;quot;, Helvetica, &amp;quot;PingFang SC&amp;quot;, &amp;quot;Hiragino Sans GB&amp;quot;, &amp;quot;Microsoft YaHei&amp;quot;, &amp;quot;\5 FAE8F6F96C59ED1&amp;quot;, Arial, sans-serif; font-weight: 400; background-color: rgb(255, 255, 255); text-align: center; line-height: 1.2; font-size: 9pt;&quot;&gt;RPC Call, HTTP/2.0 Response&lt;/p&gt;&lt;div&gt;&lt;br&gt;&lt;/div&gt;" style="fillColor=none;strokeColor=none;html=1;fontSize=11;fontStyle=0;align=left;fontColor=#596780;fontStyle=1;fontSize=11" vertex="1" parent="1">
          <mxGeometry x="620" y="540" width="240" height="20" as="geometry" />
        </mxCell>
        <mxCell id="jXOrpQiIvjn3FiTN3Y6k-51" value="POST /example.YourService/SayHello" style="rounded=1;arcSize=9;fillColor=#F7F8F9;align=left;spacingLeft=5;strokeColor=#DEE1E6;html=1;strokeWidth=2;fontColor=#596780;fontSize=12" vertex="1" parent="1">
          <mxGeometry x="620" y="560" width="240" height="33" as="geometry" />
        </mxCell>
        <mxCell id="jXOrpQiIvjn3FiTN3Y6k-52" value="" style="sketch=0;html=1;dashed=0;whitespace=wrap;fillColor=#2875E2;strokeColor=#ffffff;points=[[0.005,0.63,0],[0.1,0.2,0],[0.9,0.2,0],[0.5,0,0],[0.995,0.63,0],[0.72,0.99,0],[0.5,1,0],[0.28,0.99,0]];verticalLabelPosition=bottom;align=center;verticalAlign=top;shape=mxgraph.kubernetes.icon;prIcon=pod" vertex="1" parent="1">
          <mxGeometry x="70" y="630" width="80" height="80" as="geometry" />
        </mxCell>
        <mxCell id="jXOrpQiIvjn3FiTN3Y6k-53" value="" style="sketch=0;html=1;dashed=0;whitespace=wrap;fillColor=#2875E2;strokeColor=#ffffff;points=[[0.005,0.63,0],[0.1,0.2,0],[0.9,0.2,0],[0.5,0,0],[0.995,0.63,0],[0.72,0.99,0],[0.5,1,0],[0.28,0.99,0]];verticalLabelPosition=bottom;align=center;verticalAlign=top;shape=mxgraph.kubernetes.icon;prIcon=pod" vertex="1" parent="1">
          <mxGeometry x="70" y="850" width="80" height="80" as="geometry" />
        </mxCell>
        <mxCell id="jXOrpQiIvjn3FiTN3Y6k-54" value="" style="sketch=0;html=1;dashed=0;whitespace=wrap;fillColor=#2875E2;strokeColor=#ffffff;points=[[0.005,0.63,0],[0.1,0.2,0],[0.9,0.2,0],[0.5,0,0],[0.995,0.63,0],[0.72,0.99,0],[0.5,1,0],[0.28,0.99,0]];verticalLabelPosition=bottom;align=center;verticalAlign=top;shape=mxgraph.kubernetes.icon;prIcon=pod" vertex="1" parent="1">
          <mxGeometry x="70" y="740" width="80" height="80" as="geometry" />
        </mxCell>
        <mxCell id="jXOrpQiIvjn3FiTN3Y6k-55" value="gRPC Server" style="text;html=1;strokeColor=none;fillColor=none;align=center;verticalAlign=middle;whiteSpace=wrap;rounded=0;strokeWidth=4;" vertex="1" parent="1">
          <mxGeometry x="70" y="555" width="100" height="30" as="geometry" />
        </mxCell>
        <mxCell id="jXOrpQiIvjn3FiTN3Y6k-56" value="grpc-server-pod" style="text;html=1;strokeColor=none;fillColor=none;align=center;verticalAlign=middle;whiteSpace=wrap;rounded=0;strokeWidth=4;" vertex="1" parent="1">
          <mxGeometry x="65" y="710" width="100" height="30" as="geometry" />
        </mxCell>
        <mxCell id="jXOrpQiIvjn3FiTN3Y6k-57" value="grpc-server-pod" style="text;html=1;strokeColor=none;fillColor=none;align=center;verticalAlign=middle;whiteSpace=wrap;rounded=0;strokeWidth=4;" vertex="1" parent="1">
          <mxGeometry x="65" y="820" width="100" height="30" as="geometry" />
        </mxCell>
        <mxCell id="jXOrpQiIvjn3FiTN3Y6k-58" value="" style="sketch=0;html=1;dashed=0;whitespace=wrap;fillColor=#2875E2;strokeColor=#ffffff;points=[[0.005,0.63,0],[0.1,0.2,0],[0.9,0.2,0],[0.5,0,0],[0.995,0.63,0],[0.72,0.99,0],[0.5,1,0],[0.28,0.99,0]];verticalLabelPosition=bottom;align=center;verticalAlign=top;shape=mxgraph.kubernetes.icon;prIcon=svc" vertex="1" parent="1">
          <mxGeometry x="230" y="660" width="80" height="80" as="geometry" />
        </mxCell>
        <mxCell id="jXOrpQiIvjn3FiTN3Y6k-59" value="&lt;p style=&quot;-webkit-tap-highlight-color: transparent; box-sizing: border-box; margin: 0px; padding: 0px; font-family: &amp;quot;Helvetica Neue&amp;quot;, Helvetica, &amp;quot;PingFang SC&amp;quot;, &amp;quot;Hiragino Sans GB&amp;quot;, &amp;quot;Microsoft YaHei&amp;quot;, &amp;quot;\5 FAE8F6F96C59ED1&amp;quot;, Arial, sans-serif; background-color: rgb(255, 255, 255); line-height: 1.2; font-size: 10pt;&quot;&gt;grpc-server-headless.grpc-server.svc.cluster.local:8443&lt;br&gt;&lt;/p&gt;" style="text;html=1;strokeColor=none;fillColor=none;align=center;verticalAlign=middle;whiteSpace=wrap;rounded=0;strokeWidth=4;" vertex="1" parent="1">
          <mxGeometry x="158.29" y="620" width="210" height="30" as="geometry" />
        </mxCell>
        <mxCell id="jXOrpQiIvjn3FiTN3Y6k-60" value="" style="endArrow=classic;html=1;rounded=0;exitX=0.005;exitY=0.63;exitDx=0;exitDy=0;exitPerimeter=0;entryX=0.995;entryY=0.63;entryDx=0;entryDy=0;entryPerimeter=0;" edge="1" parent="1" source="jXOrpQiIvjn3FiTN3Y6k-58" target="jXOrpQiIvjn3FiTN3Y6k-54">
          <mxGeometry width="50" height="50" relative="1" as="geometry">
            <mxPoint x="180" y="790" as="sourcePoint" />
            <mxPoint x="230" y="740" as="targetPoint" />
          </mxGeometry>
        </mxCell>
        <mxCell id="jXOrpQiIvjn3FiTN3Y6k-61" value="" style="endArrow=classic;html=1;rounded=0;exitX=0.1;exitY=0.2;exitDx=0;exitDy=0;exitPerimeter=0;entryX=0.995;entryY=0.63;entryDx=0;entryDy=0;entryPerimeter=0;" edge="1" parent="1" source="jXOrpQiIvjn3FiTN3Y6k-58" target="jXOrpQiIvjn3FiTN3Y6k-52">
          <mxGeometry width="50" height="50" relative="1" as="geometry">
            <mxPoint x="250" y="810" as="sourcePoint" />
            <mxPoint x="160" y="800" as="targetPoint" />
          </mxGeometry>
        </mxCell>
        <mxCell id="jXOrpQiIvjn3FiTN3Y6k-62" value="" style="endArrow=classic;html=1;rounded=0;exitX=0.5;exitY=1;exitDx=0;exitDy=0;entryX=0.9;entryY=0.2;entryDx=0;entryDy=0;entryPerimeter=0;exitPerimeter=0;" edge="1" parent="1" source="jXOrpQiIvjn3FiTN3Y6k-58" target="jXOrpQiIvjn3FiTN3Y6k-53">
          <mxGeometry width="50" height="50" relative="1" as="geometry">
            <mxPoint x="268" y="956" as="sourcePoint" />
            <mxPoint x="170" y="870" as="targetPoint" />
          </mxGeometry>
        </mxCell>
        <mxCell id="jXOrpQiIvjn3FiTN3Y6k-63" value="Structured Protobuf Response" style="rounded=0;whiteSpace=wrap;html=1;" vertex="1" parent="1">
          <mxGeometry x="360" y="570" width="120" height="60" as="geometry" />
        </mxCell>
        <mxCell id="jXOrpQiIvjn3FiTN3Y6k-70" value="" style="edgeStyle=orthogonalEdgeStyle;rounded=0;orthogonalLoop=1;jettySize=auto;html=1;" edge="1" parent="1" source="jXOrpQiIvjn3FiTN3Y6k-66" target="jXOrpQiIvjn3FiTN3Y6k-67">
          <mxGeometry relative="1" as="geometry" />
        </mxCell>
        <mxCell id="jXOrpQiIvjn3FiTN3Y6k-66" value="Serialized Protobuf Response" style="rounded=0;whiteSpace=wrap;html=1;" vertex="1" parent="1">
          <mxGeometry x="360" y="680" width="120" height="60" as="geometry" />
        </mxCell>
        <mxCell id="jXOrpQiIvjn3FiTN3Y6k-67" value="" style="sketch=0;outlineConnect=0;fontColor=#232F3E;gradientColor=none;fillColor=#7AA116;strokeColor=none;dashed=0;verticalLabelPosition=bottom;verticalAlign=top;align=center;html=1;fontSize=12;fontStyle=0;aspect=fixed;pointerEvents=1;shape=mxgraph.aws4.http2_protocol;" vertex="1" parent="1">
          <mxGeometry x="381" y="790" width="78" height="78" as="geometry" />
        </mxCell>
        <mxCell id="jXOrpQiIvjn3FiTN3Y6k-68" value="&lt;p style=&quot;-webkit-tap-highlight-color: transparent; box-sizing: border-box; margin: 0px; padding: 0px; font-family: &amp;quot;Helvetica Neue&amp;quot;, Helvetica, &amp;quot;PingFang SC&amp;quot;, &amp;quot;Hiragino Sans GB&amp;quot;, &amp;quot;Microsoft YaHei&amp;quot;, &amp;quot;\5 FAE8F6F96C59ED1&amp;quot;, Arial, sans-serif; background-color: rgb(255, 255, 255); line-height: 1.2; font-size: 10pt;&quot;&gt;HTTP/2.0 Server Stub&lt;/p&gt;" style="rounded=0;whiteSpace=wrap;html=1;" vertex="1" parent="1">
          <mxGeometry x="354" y="890" width="120" height="60" as="geometry" />
        </mxCell>
        <mxCell id="jXOrpQiIvjn3FiTN3Y6k-69" value="" style="endArrow=classic;html=1;rounded=0;exitX=0.5;exitY=1;exitDx=0;exitDy=0;entryX=0.5;entryY=0;entryDx=0;entryDy=0;" edge="1" parent="1" source="jXOrpQiIvjn3FiTN3Y6k-63" target="jXOrpQiIvjn3FiTN3Y6k-66">
          <mxGeometry width="50" height="50" relative="1" as="geometry">
            <mxPoint x="510" y="700" as="sourcePoint" />
            <mxPoint x="560" y="650" as="targetPoint" />
          </mxGeometry>
        </mxCell>
        <mxCell id="jXOrpQiIvjn3FiTN3Y6k-71" value="" style="sketch=0;html=1;dashed=0;whitespace=wrap;fillColor=#2875E2;strokeColor=#ffffff;points=[[0.005,0.63,0],[0.1,0.2,0],[0.9,0.2,0],[0.5,0,0],[0.995,0.63,0],[0.72,0.99,0],[0.5,1,0],[0.28,0.99,0]];verticalLabelPosition=bottom;align=center;verticalAlign=top;shape=mxgraph.kubernetes.icon;prIcon=hpa" vertex="1" parent="1">
          <mxGeometry x="218" y="798" width="121" height="70" as="geometry" />
        </mxCell>
        <mxCell id="jXOrpQiIvjn3FiTN3Y6k-72" value="&lt;p style=&quot;-webkit-tap-highlight-color: transparent; box-sizing: border-box; margin: 0px; padding: 0px; font-family: &amp;quot;Helvetica Neue&amp;quot;, Helvetica, &amp;quot;PingFang SC&amp;quot;, &amp;quot;Hiragino Sans GB&amp;quot;, &amp;quot;Microsoft YaHei&amp;quot;, &amp;quot;\5 FAE8F6F96C59ED1&amp;quot;, Arial, sans-serif; background-color: rgb(255, 255, 255); line-height: 1.2; font-size: 10pt;&quot;&gt;HPA&lt;br&gt;&lt;/p&gt;" style="text;html=1;strokeColor=none;fillColor=none;align=center;verticalAlign=middle;whiteSpace=wrap;rounded=0;strokeWidth=4;" vertex="1" parent="1">
          <mxGeometry x="153.5" y="768" width="250" height="30" as="geometry" />
        </mxCell>
        <mxCell id="jXOrpQiIvjn3FiTN3Y6k-73" value="" style="image;aspect=fixed;html=1;points=[];align=center;fontSize=12;image=img/lib/azure2/general/Scale.svg;rotation=-90;" vertex="1" parent="1">
          <mxGeometry x="201" y="920" width="60" height="60" as="geometry" />
        </mxCell>
        <mxCell id="jXOrpQiIvjn3FiTN3Y6k-74" value="&lt;p style=&quot;-webkit-tap-highlight-color: transparent; box-sizing: border-box; margin: 0px; padding: 0px; font-family: &amp;quot;Helvetica Neue&amp;quot;, Helvetica, &amp;quot;PingFang SC&amp;quot;, &amp;quot;Hiragino Sans GB&amp;quot;, &amp;quot;Microsoft YaHei&amp;quot;, &amp;quot;\5 FAE8F6F96C59ED1&amp;quot;, Arial, sans-serif; background-color: rgb(255, 255, 255); line-height: 1.2; font-size: 10pt;&quot;&gt;Scale Up or Down&lt;br&gt;&lt;/p&gt;" style="text;html=1;strokeColor=none;fillColor=none;align=center;verticalAlign=middle;whiteSpace=wrap;rounded=0;strokeWidth=4;" vertex="1" parent="1">
          <mxGeometry x="20" y="930" width="250" height="30" as="geometry" />
        </mxCell>
        <mxCell id="jXOrpQiIvjn3FiTN3Y6k-75" value="" style="endArrow=classic;html=1;rounded=0;exitX=0.95;exitY=-0.033;exitDx=0;exitDy=0;exitPerimeter=0;entryX=0.995;entryY=0.63;entryDx=0;entryDy=0;entryPerimeter=0;" edge="1" parent="1" source="jXOrpQiIvjn3FiTN3Y6k-73" target="jXOrpQiIvjn3FiTN3Y6k-53">
          <mxGeometry width="50" height="50" relative="1" as="geometry">
            <mxPoint x="220" y="770" as="sourcePoint" />
            <mxPoint x="270" y="720" as="targetPoint" />
          </mxGeometry>
        </mxCell>
        <mxCell id="jXOrpQiIvjn3FiTN3Y6k-76" value="" style="endArrow=classic;html=1;rounded=0;exitX=0.562;exitY=1.014;exitDx=0;exitDy=0;exitPerimeter=0;entryX=0.967;entryY=1.033;entryDx=0;entryDy=0;entryPerimeter=0;" edge="1" parent="1" source="jXOrpQiIvjn3FiTN3Y6k-71" target="jXOrpQiIvjn3FiTN3Y6k-73">
          <mxGeometry width="50" height="50" relative="1" as="geometry">
            <mxPoint x="209" y="933" as="sourcePoint" />
            <mxPoint x="160" y="910" as="targetPoint" />
          </mxGeometry>
        </mxCell>
        <mxCell id="jXOrpQiIvjn3FiTN3Y6k-77" value="" style="verticalLabelPosition=bottom;html=1;verticalAlign=top;strokeWidth=1;align=center;outlineConnect=0;dashed=0;outlineConnect=0;shape=mxgraph.aws3d.dashedEdge2;strokeColor=#2D6195;aspect=fixed;rotation=15;" vertex="1" parent="1">
          <mxGeometry x="147.29" y="540" width="201.19" height="114.59" as="geometry" />
        </mxCell>
        <mxCell id="jXOrpQiIvjn3FiTN3Y6k-78" value="" style="whiteSpace=wrap;html=1;aspect=fixed;" vertex="1" parent="1">
          <mxGeometry x="730" y="610" width="410" height="410" as="geometry" />
        </mxCell>
        <mxCell id="jXOrpQiIvjn3FiTN3Y6k-79" value="" style="sketch=0;html=1;dashed=0;whitespace=wrap;fillColor=#2875E2;strokeColor=#ffffff;points=[[0.005,0.63,0],[0.1,0.2,0],[0.9,0.2,0],[0.5,0,0],[0.995,0.63,0],[0.72,0.99,0],[0.5,1,0],[0.28,0.99,0]];verticalLabelPosition=bottom;align=center;verticalAlign=top;shape=mxgraph.kubernetes.icon;prIcon=pod" vertex="1" parent="1">
          <mxGeometry x="870" y="670" width="80" height="80" as="geometry" />
        </mxCell>
        <mxCell id="jXOrpQiIvjn3FiTN3Y6k-80" value="" style="sketch=0;html=1;dashed=0;whitespace=wrap;fillColor=#2875E2;strokeColor=#ffffff;points=[[0.005,0.63,0],[0.1,0.2,0],[0.9,0.2,0],[0.5,0,0],[0.995,0.63,0],[0.72,0.99,0],[0.5,1,0],[0.28,0.99,0]];verticalLabelPosition=bottom;align=center;verticalAlign=top;shape=mxgraph.kubernetes.icon;prIcon=pod" vertex="1" parent="1">
          <mxGeometry x="880" y="850" width="80" height="80" as="geometry" />
        </mxCell>
        <mxCell id="jXOrpQiIvjn3FiTN3Y6k-81" value="Prometheus Server" style="text;html=1;strokeColor=none;fillColor=none;align=center;verticalAlign=middle;whiteSpace=wrap;rounded=0;strokeWidth=4;" vertex="1" parent="1">
          <mxGeometry x="780" y="660" width="100" height="30" as="geometry" />
        </mxCell>
        <mxCell id="jXOrpQiIvjn3FiTN3Y6k-82" value="Prometheus Adapter" style="text;html=1;strokeColor=none;fillColor=none;align=center;verticalAlign=middle;whiteSpace=wrap;rounded=0;strokeWidth=4;" vertex="1" parent="1">
          <mxGeometry x="880" y="935" width="100" height="30" as="geometry" />
        </mxCell>
        <mxCell id="jXOrpQiIvjn3FiTN3Y6k-83" value="" style="sketch=0;html=1;dashed=0;whitespace=wrap;fillColor=#2875E2;strokeColor=#ffffff;points=[[0.005,0.63,0],[0.1,0.2,0],[0.9,0.2,0],[0.5,0,0],[0.995,0.63,0],[0.72,0.99,0],[0.5,1,0],[0.28,0.99,0]];verticalLabelPosition=bottom;align=center;verticalAlign=top;shape=mxgraph.kubernetes.icon;prIcon=svc" vertex="1" parent="1">
          <mxGeometry x="1030" y="750" width="80" height="80" as="geometry" />
        </mxCell>
        <mxCell id="jXOrpQiIvjn3FiTN3Y6k-84" value="prometheus-service:80" style="text;html=1;strokeColor=none;fillColor=none;align=center;verticalAlign=middle;whiteSpace=wrap;rounded=0;strokeWidth=4;" vertex="1" parent="1">
          <mxGeometry x="1020" y="720" width="100" height="30" as="geometry" />
        </mxCell>
        <mxCell id="jXOrpQiIvjn3FiTN3Y6k-85" value="" style="endArrow=classic;html=1;rounded=0;exitX=0.1;exitY=0.2;exitDx=0;exitDy=0;exitPerimeter=0;entryX=0.995;entryY=0.63;entryDx=0;entryDy=0;entryPerimeter=0;" edge="1" parent="1" source="jXOrpQiIvjn3FiTN3Y6k-83" target="jXOrpQiIvjn3FiTN3Y6k-79">
          <mxGeometry width="50" height="50" relative="1" as="geometry">
            <mxPoint x="950" y="750" as="sourcePoint" />
            <mxPoint x="1000" y="700" as="targetPoint" />
          </mxGeometry>
        </mxCell>
        <mxCell id="jXOrpQiIvjn3FiTN3Y6k-86" value="" style="endArrow=classic;html=1;rounded=0;exitX=0.9;exitY=0.2;exitDx=0;exitDy=0;exitPerimeter=0;entryX=0.263;entryY=0.913;entryDx=0;entryDy=0;entryPerimeter=0;" edge="1" parent="1" source="jXOrpQiIvjn3FiTN3Y6k-80" target="jXOrpQiIvjn3FiTN3Y6k-83">
          <mxGeometry width="50" height="50" relative="1" as="geometry">
            <mxPoint x="1023" y="872" as="sourcePoint" />
            <mxPoint x="935" y="826" as="targetPoint" />
          </mxGeometry>
        </mxCell>
        <mxCell id="jXOrpQiIvjn3FiTN3Y6k-94" value="" style="endArrow=classic;html=1;rounded=0;entryX=0.005;entryY=0.63;entryDx=0;entryDy=0;entryPerimeter=0;exitX=1;exitY=0.5;exitDx=0;exitDy=0;" edge="1" parent="1" source="jXOrpQiIvjn3FiTN3Y6k-45" target="jXOrpQiIvjn3FiTN3Y6k-79">
          <mxGeometry width="50" height="50" relative="1" as="geometry">
            <mxPoint x="520" y="860" as="sourcePoint" />
            <mxPoint x="570" y="810" as="targetPoint" />
          </mxGeometry>
        </mxCell>
        <mxCell id="jXOrpQiIvjn3FiTN3Y6k-95" value="/metrics" style="rounded=1;arcSize=9;fillColor=#F7F8F9;align=left;spacingLeft=5;strokeColor=#DEE1E6;html=1;strokeWidth=2;fontColor=#596780;fontSize=12" vertex="1" parent="1">
          <mxGeometry x="554" y="773" width="56" height="20" as="geometry" />
        </mxCell>
        <mxCell id="jXOrpQiIvjn3FiTN3Y6k-96" value="" style="endArrow=classic;html=1;rounded=0;entryX=0.5;entryY=0;entryDx=0;entryDy=0;entryPerimeter=0;exitX=0.58;exitY=1.01;exitDx=0;exitDy=0;exitPerimeter=0;" edge="1" parent="1" source="jXOrpQiIvjn3FiTN3Y6k-18" target="jXOrpQiIvjn3FiTN3Y6k-79">
          <mxGeometry width="50" height="50" relative="1" as="geometry">
            <mxPoint x="530" y="785" as="sourcePoint" />
            <mxPoint x="880" y="730" as="targetPoint" />
          </mxGeometry>
        </mxCell>
        <mxCell id="jXOrpQiIvjn3FiTN3Y6k-97" value="/stats/prometheus" style="rounded=1;arcSize=9;fillColor=#F7F8F9;align=left;spacingLeft=5;strokeColor=#DEE1E6;html=1;strokeWidth=2;fontColor=#596780;fontSize=12" vertex="1" parent="1">
          <mxGeometry x="920" y="520" width="110" height="20" as="geometry" />
        </mxCell>
        <mxCell id="jXOrpQiIvjn3FiTN3Y6k-98" value="" style="sketch=0;html=1;dashed=0;whitespace=wrap;fillColor=#2875E2;strokeColor=#ffffff;points=[[0.005,0.63,0],[0.1,0.2,0],[0.9,0.2,0],[0.5,0,0],[0.995,0.63,0],[0.72,0.99,0],[0.5,1,0],[0.28,0.99,0]];verticalLabelPosition=bottom;align=center;verticalAlign=top;shape=mxgraph.kubernetes.icon;prIcon=api" vertex="1" parent="1">
          <mxGeometry x="580" y="820" width="90" height="120" as="geometry" />
        </mxCell>
        <mxCell id="jXOrpQiIvjn3FiTN3Y6k-99" value="Custom Metrics API" style="text;html=1;strokeColor=none;fillColor=none;align=center;verticalAlign=middle;whiteSpace=wrap;rounded=0;strokeWidth=4;" vertex="1" parent="1">
          <mxGeometry x="580" y="935" width="100" height="30" as="geometry" />
        </mxCell>
        <mxCell id="jXOrpQiIvjn3FiTN3Y6k-100" value="" style="endArrow=classic;html=1;rounded=0;exitX=0.28;exitY=0.99;exitDx=0;exitDy=0;exitPerimeter=0;entryX=0.522;entryY=0.138;entryDx=0;entryDy=0;entryPerimeter=0;" edge="1" parent="1" source="jXOrpQiIvjn3FiTN3Y6k-32" target="jXOrpQiIvjn3FiTN3Y6k-98">
          <mxGeometry width="50" height="50" relative="1" as="geometry">
            <mxPoint x="556.002" y="651.44" as="sourcePoint" />
            <mxPoint x="827.46" y="698.5699999999999" as="targetPoint" />
          </mxGeometry>
        </mxCell>
        <mxCell id="jXOrpQiIvjn3FiTN3Y6k-101" value="" style="endArrow=classic;html=1;rounded=0;exitX=0.752;exitY=0.721;exitDx=0;exitDy=0;exitPerimeter=0;" edge="1" parent="1">
          <mxGeometry width="50" height="50" relative="1" as="geometry">
            <mxPoint x="319" y="858" as="sourcePoint" />
            <mxPoint x="630" y="980" as="targetPoint" />
            <Array as="points">
              <mxPoint x="320" y="1090" />
              <mxPoint x="630" y="1090" />
            </Array>
          </mxGeometry>
        </mxCell>
        <mxCell id="jXOrpQiIvjn3FiTN3Y6k-102" value="Pulling&amp;nbsp;grpc_requests_per_second metric" style="text;html=1;strokeColor=none;fillColor=none;align=center;verticalAlign=middle;whiteSpace=wrap;rounded=0;strokeWidth=4;" vertex="1" parent="1">
          <mxGeometry x="360" y="1060" width="196.5" height="30" as="geometry" />
        </mxCell>
        <mxCell id="jXOrpQiIvjn3FiTN3Y6k-103" value="Pulling&amp;nbsp;&lt;br&gt;envoy_cluster_upstream_per_second&lt;span style=&quot;background-color: initial;&quot;&gt;&amp;nbsp;&lt;br&gt;metric&lt;/span&gt;" style="text;html=1;strokeColor=none;fillColor=none;align=center;verticalAlign=middle;whiteSpace=wrap;rounded=0;strokeWidth=4;" vertex="1" parent="1">
          <mxGeometry x="546.75" y="640" width="156.5" height="70" as="geometry" />
        </mxCell>
        <mxCell id="jXOrpQiIvjn3FiTN3Y6k-105" value="" style="endArrow=classic;html=1;rounded=0;exitX=0.995;exitY=0.63;exitDx=0;exitDy=0;exitPerimeter=0;entryX=0.005;entryY=0.63;entryDx=0;entryDy=0;entryPerimeter=0;" edge="1" parent="1" source="jXOrpQiIvjn3FiTN3Y6k-98" target="jXOrpQiIvjn3FiTN3Y6k-80">
          <mxGeometry width="50" height="50" relative="1" as="geometry">
            <mxPoint x="640" y="850" as="sourcePoint" />
            <mxPoint x="690" y="800" as="targetPoint" />
          </mxGeometry>
        </mxCell>
        <mxCell id="jXOrpQiIvjn3FiTN3Y6k-106" value="/apis/custom.metrics.k8s.io/v1beta1" style="text;html=1;strokeColor=none;fillColor=none;align=center;verticalAlign=middle;whiteSpace=wrap;rounded=0;strokeWidth=4;" vertex="1" parent="1">
          <mxGeometry x="720" y="868" width="100" height="30" as="geometry" />
        </mxCell>
      </root>
    </mxGraphModel>
  </diagram>
</mxfile>
